<svg xmlns="http://www.w3.org/2000/svg" viewBox="1142.368 3 21.327 24"><defs><style>.a{fill:#ed1f34;}.b{fill:#fff;}</style></defs><g transform="translate(1142.368 3)"><path class="a" d="M57.966,26.051q.012-.043.022-.087l.006-.028q.008-.038.014-.077l.005-.033c0-.026.006-.051.008-.077,0-.011,0-.021,0-.032,0-.036,0-.072,0-.108h0V23.691h0V22.463h0v-1.4h0V15.629a1.6,1.6,0,0,0-.685-1.309c-.037-.026-.074-.05-.113-.073l-1.072-.619-1-.579-.808-.466L51.256,10.8l-1.205-.7-.9-.522-.56-.323a1.6,1.6,0,0,0-1.6,0l-.556.321-.9.522-1.205.7h0l-3.09,1.785-1.354.782-1,.58-.529.305c-.038.022-.075.046-.11.071a1.6,1.6,0,0,0-.687,1.311v6.83h0v1.228h0v1.921h0c0,.036,0,.072,0,.108,0,.011,0,.021,0,.031,0,.026,0,.051.008.077l.005.033q.006.038.014.076l.006.028c.007.029.014.057.022.086l0,.016a1.6,1.6,0,0,0,.185.4h0a1.6,1.6,0,0,0,.189.241l.007.007q.05.052.1.1l.018.015c.037.031.075.061.115.089s.074.05.113.073l1.057.61,1,.579.823.475,4.3,2.479.9.522.56.323a1.6,1.6,0,0,0,1.6,0l.556-.321.9-.522,1.205-.7,2.6-1.5.486-.281,1.236-.714,1-.58.647-.374c.038-.022.075-.046.11-.071s.078-.057.115-.088l.018-.015q.055-.047.1-.1l.006-.007a1.6,1.6,0,0,0,.376-.645Z" transform="translate(-37.126 -8.621)"/><g transform="translate(2.354 7.492)"><path class="b" d="M84.743,167.662a3.327,3.327,0,1,1,2.327-5.7,4.508,4.508,0,1,0,0,4.754A3.316,3.316,0,0,1,84.743,167.662Z" transform="translate(-78.732 -159.827)"/><path class="b" d="M265.472,217.236l1.313-.5.073-1.4.884,1.093,1.357-.365-.766,1.178.766,1.178-1.357-.365-.884,1.093-.073-1.4Z" transform="translate(-256.719 -212.728)"/><path class="b" d="M265.472,217.236l1.313-.5.073-1.4.884,1.093,1.357-.365-.766,1.178.766,1.178-1.357-.365-.884,1.093-.073-1.4Z" transform="translate(-256.719 -212.728)"/></g><path d="M43.514,10.624a.336.336,0,0,0-.36-.127l-1.146.308-.746-.923a.336.336,0,0,0-.6.194L40.6,11.261l-1.108.424a.336.336,0,0,0,0,.628l1.108.424.061,1.185a.336.336,0,0,0,.6.194l.746-.923,1.146.308a.336.336,0,0,0,.369-.508L42.877,12l.647-.995A.337.337,0,0,0,43.514,10.624Zm-1.321,1.559.287.442-.509-.137a.337.337,0,0,0-.349.113l-.331.41-.027-.526a.336.336,0,0,0-.216-.3L40.556,12l.492-.189a.336.336,0,0,0,.216-.3l.027-.526.331.41a.337.337,0,0,0,.349.113l.509-.137-.287.442A.336.336,0,0,0,42.193,12.183Zm-2.707,2.371a4.844,4.844,0,1,1,0-5.109.336.336,0,0,1-.521.418,2.991,2.991,0,0,0-5.022,1.531.336.336,0,0,1-.659-.135,3.669,3.669,0,0,1,4.168-2.878,4.172,4.172,0,1,0,0,7.237,3.669,3.669,0,0,1-4.168-2.878.336.336,0,1,1,.659-.135,2.991,2.991,0,0,0,5.022,1.531.336.336,0,0,1,.521.418ZM49.834,7.008a2.024,2.024,0,0,0-.867-1.657c-.052-.036-.1-.066-.144-.092L40.179.27a2.019,2.019,0,0,0-2.019,0L29.517,5.262c-.044.026-.089.054-.14.089a2.024,2.024,0,0,0-.87,1.66l0,9.98c0,.043,0,.088,0,.137,0,.011,0,.022,0,.033v.007c0,.033.006.065.011.1l.005.034v.007c.005.032.011.064.018.1l.008.035c.008.036.018.072.028.11l.005.018a2.019,2.019,0,0,0,.234.51l0,0a2.028,2.028,0,0,0,.237.3l.009.01c.042.043.086.085.133.125l.023.019c.051.043.1.08.145.112s.1.066.144.092l8.644,4.989a2.022,2.022,0,0,0,1.009.27h0a2.022,2.022,0,0,0,1.01-.271l8.642-4.992c.044-.026.089-.054.14-.089s.093-.068.145-.111l.005,0,.018-.015c.046-.04.091-.082.132-.124l.009-.01a2.029,2.029,0,0,0,.476-.817l.005-.019q.016-.054.028-.11l.008-.036q.01-.048.018-.1V17.3c0-.012,0-.024.006-.036,0-.032.008-.065.011-.1v-.007c0-.011,0-.022,0-.034,0-.049,0-.094,0-.137Zm-.849,10.059,0,.024c0,.019,0,.038-.006.056l0,.025c0,.019-.007.038-.011.058l0,.019c0,.021-.01.043-.016.063l0,.012a1.178,1.178,0,0,1-.277.475l0,0c-.024.025-.05.049-.078.073l-.013.01c-.032.027-.059.048-.084.065s-.057.038-.081.052L39.759,23a1.172,1.172,0,0,1-1.172,0l-8.644-4.989c-.025-.014-.051-.031-.083-.054s-.052-.038-.084-.065l-.014-.011c-.027-.023-.053-.048-.075-.071l-.007-.008a1.184,1.184,0,0,1-.139-.177v0a1.17,1.17,0,0,1-.134-.294l0-.011c-.006-.021-.011-.042-.016-.064l0-.02c0-.019-.007-.037-.01-.056l0-.025c0-.019,0-.038-.006-.056l0-.023c0-.026,0-.053,0-.08l0-9.98a1.177,1.177,0,0,1,.5-.963c.031-.022.057-.038.081-.052L38.584,1a1.172,1.172,0,0,1,1.172,0L48.4,5.993c.025.014.051.031.083.054a1.176,1.176,0,0,1,.5.961l0,9.98C48.988,17.015,48.986,17.042,48.985,17.067Z" transform="translate(-28.508 0)"/></g></svg>