<svg xmlns="http://www.w3.org/2000/svg" viewBox="1174.164 3 21.329 24"><defs><style>.a{fill:#103b9b;}.b{fill:#fff;}.c{fill:#ed1f34;}</style></defs><g transform="translate(1174.164 3)"><path class="a" d="M57.952,26.029c.008-.029.016-.058.022-.087l.006-.028q.008-.038.014-.077L58,25.8c0-.026.006-.051.008-.077,0-.011,0-.021,0-.032,0-.036,0-.072,0-.108h0V23.669h0V22.441h0v-1.4h0V15.606a1.6,1.6,0,0,0-.685-1.309c-.037-.026-.074-.05-.113-.073l-1.072-.619-1-.579-.808-.466-3.09-1.784-1.206-.7-.9-.522-.56-.323a1.6,1.6,0,0,0-1.6,0l-.557.321-.9.522-1.206.7h0l-3.09,1.785-1.354.782-1,.58-.529.306c-.038.022-.075.046-.11.071a1.6,1.6,0,0,0-.687,1.312V22.44h0v1.228h0V25.59h0c0,.036,0,.072,0,.108,0,.01,0,.021,0,.031,0,.026,0,.051.008.077s0,.022.005.033.009.051.014.076l.006.028q.01.043.022.086l0,.016a1.593,1.593,0,0,0,.185.4h0a1.6,1.6,0,0,0,.189.241l.007.007q.05.052.1.1l.018.015c.037.031.075.061.115.089s.074.05.113.073l1.057.61,1,.579.823.475,4.3,2.479.9.522.56.323a1.6,1.6,0,0,0,1.6,0l.557-.321.9-.522,1.206-.7,2.6-1.5.486-.281,1.236-.714,1-.58.648-.374c.038-.022.075-.046.11-.071s.078-.057.115-.088l.018-.015q.055-.047.1-.1l.006-.007a1.6,1.6,0,0,0,.376-.645Z" transform="translate(-37.11 -8.598)"/><path class="b" d="M57.959,96.5a1.6,1.6,0,0,0-.63-.9c-.037-.026-.074-.05-.113-.073l-1.072-.619-1-.579-.011-.006-7.354,4.9-7.353-4.9-.557.322-1,.58-.529.306c-.038.022-.075.046-.11.071a1.6,1.6,0,0,0-.687,1.312v.81l6.247,4.165-6.246,4.164v.841h0c0,.036,0,.072,0,.108,0,.01,0,.021,0,.031,0,.026,0,.051.008.077s0,.022.005.033.009.051.014.076l.006.028c.007.029.014.057.022.086l0,.016a1.594,1.594,0,0,0,.185.4h0a1.592,1.592,0,0,0,.189.241l.007.007q.05.052.1.1l.018.015c.037.031.075.061.115.089s.074.05.113.073l1.057.61,1,.579,0,0,7.376-4.917,7.375,4.917.417-.241,1-.58.648-.374c.038-.022.075-.046.11-.071s.078-.057.115-.088l.018-.015q.055-.047.1-.1l.006-.007a1.6,1.6,0,0,0,.376-.645l0-.015c.008-.029.016-.058.022-.087l.006-.028q.008-.038.014-.077l.005-.033c0-.026.006-.051.008-.077,0-.011,0-.021,0-.032,0-.036,0-.072,0-.108h0v-.837l-6.247-4.165,6.246-4.164v-.815A1.582,1.582,0,0,0,57.959,96.5Z" transform="translate(-37.11 -89.905)"/><path class="c" d="M57.477,116.489l.018-.015q.055-.047.1-.1l.006-.007a1.6,1.6,0,0,0,.376-.645l0-.015c.008-.029.016-.058.022-.087l.006-.028q.008-.038.014-.077l.005-.033c0-.026.006-.051.008-.077,0-.011,0-.021,0-.032s0-.017,0-.026l-8.922-5.962,8.176-5.451c-.017-.011-.033-.023-.051-.033l-1.072-.619-.3-.174-9.4,6.266-8.16-5.44c-.021.013-.042.026-.063.04a1.6,1.6,0,0,0-.686,1.24l8.894,5.943L38.3,116.6c.024.016.047.032.072.046l1.057.61.294.17,9.42-6.28,8.18,5.453.042-.027C57.4,116.549,57.44,116.52,57.477,116.489Z" transform="translate(-37.144 -98.277)"/><path d="M57.216,112l-.325.187L49.1,106.993l-9.024,6.016-.691-.4-.1-.059,9.589-6.393a.41.41,0,0,1,.455,0l8.276,5.517-.037.041-.006.007q-.05.052-.1.1l-.018.015c-.037.031-.075.061-.115.088S57.255,111.975,57.216,112ZM46.839,106.51a.41.41,0,0,0-.182-.341l-9.039-6.04a1.586,1.586,0,0,0-.085.509v.421l8.157,5.451-7.75,5.167c.012.014.023.028.036.041l.007.007q.05.052.1.1l.018.015c.037.031.075.061.115.089s.074.05.113.073l.321.185,8-5.335A.41.41,0,0,0,46.839,106.51Zm-.4-1.374a.409.409,0,0,0,.227-.069l9.567-6.379-.1-.055-.7-.4-9,6-7.766-5.178-.346.2c-.038.022-.075.046-.11.071a1.583,1.583,0,0,0-.266.234l8.261,5.507A.41.41,0,0,0,46.443,105.136Zm2.236-.4a.41.41,0,0,0,.182.341l9.065,6.058c.007-.021.014-.041.021-.062l0-.015c.008-.029.016-.058.022-.087l.006-.028q.008-.038.014-.077l.005-.033c0-.026.006-.051.008-.077,0-.011,0-.021,0-.032,0-.036,0-.072,0-.108h0v-.409l-8.186-5.47,7.766-5.177a1.587,1.587,0,0,0-.266-.234c-.037-.026-.074-.05-.113-.073l-.343-.2-8.01,5.34A.41.41,0,0,0,48.679,104.736Z" transform="translate(-37.109 -93.626)"/><path class="b" d="M58.024,22.442V18.371H50V10.055l-.859-.5-.56-.323a1.6,1.6,0,0,0-1.6,0l-.557.321-.859.5v8.317H37.544v4.07h0V22.8h8.024v8.343l.859.5.56.323a1.6,1.6,0,0,0,1.6,0l.557-.321.859-.5V22.8h8.025v-.359h0Z" transform="translate(-37.12 -8.599)"/><path class="c" d="M58.027,19.4h-9.05V9.463l-.394-.227a1.6,1.6,0,0,0-1.6,0l-.39.225V19.4h-9.05v2.379H46.6v9.96l.394.227a1.6,1.6,0,0,0,1.6,0l.39-.225V21.775h9.05V19.4Z" transform="translate(-37.123 -8.599)"/><path d="M49.817,7.007a2.025,2.025,0,0,0-.866-1.657c-.051-.036-.1-.066-.144-.092L40.162.269a2.026,2.026,0,0,0-2.02,0L29.5,5.261c-.044.026-.089.054-.14.089a2.025,2.025,0,0,0-.87,1.66l0,9.981c0,.043,0,.088,0,.137,0,.011,0,.022,0,.034v.006c0,.032.006.065.011.1,0,.012,0,.024.006.041.005.033.011.065.018.1l.008.035c.008.036.018.072.028.11l.005.019a2.015,2.015,0,0,0,.232.507l0,0a2.018,2.018,0,0,0,.237.3l.011.011c.042.044.087.086.132.125l.023.019c.051.043.1.08.145.112s.1.065.144.092l8.645,4.989a2.025,2.025,0,0,0,2.02,0l8.643-4.992c.044-.026.089-.054.14-.089s.094-.069.146-.112l.022-.019c.046-.04.091-.082.134-.127l.006-.007a2.023,2.023,0,0,0,.475-.813l.007-.024c.01-.036.02-.072.028-.108l.008-.036c.007-.032.013-.064.019-.1l.006-.037c0-.032.008-.065.011-.1v-.007c0-.011,0-.022,0-.034,0-.05,0-.095,0-.137Zm-1.351-.961a1.176,1.176,0,0,1,.5.961v3.339H40.807V1.62l7.576,4.372C48.408,6.007,48.434,6.024,48.467,6.046Zm-19.041.521a1.177,1.177,0,0,1,.417-.519c.032-.022.057-.038.081-.052L37.5,1.619v8.728H29.338V7.011A1.162,1.162,0,0,1,29.426,6.567Zm.417,11.386c-.025-.018-.052-.038-.085-.066l-.012-.01c-.027-.023-.052-.047-.074-.069l-.008-.009a1.174,1.174,0,0,1-.137-.174l0,0a1.167,1.167,0,0,1-.135-.294l0-.013c-.006-.021-.011-.042-.016-.063l0-.021c0-.018-.007-.037-.01-.056l0-.023c0-.019,0-.038-.006-.057l0-.022c0-.026,0-.053,0-.08V13.652H37.5v8.726l-7.576-4.372C29.9,17.992,29.874,17.975,29.842,17.953Zm19.126-.886,0,.024c0,.019,0,.038-.006.056l0,.025c0,.019-.006.038-.01.056l0,.021c0,.021-.01.043-.017.064h0l0,.011a1.178,1.178,0,0,1-.277.474l0,0c-.024.025-.05.049-.077.072l-.014.011c-.032.026-.059.048-.084.065s-.057.038-.081.052L40.807,22.38V13.652H45.77a.424.424,0,0,0,0-.848H40.384a.424.424,0,0,0-.424.424V22.87L39.742,23a1.175,1.175,0,0,1-1.172,0l-.221-.128V13.229a.424.424,0,0,0-.424-.424H29.339V11.194h8.587a.424.424,0,0,0,.424-.424V1.129L38.567,1a1.175,1.175,0,0,1,1.172,0l.221.128V10.77a.424.424,0,0,0,.424.424H48.97V12.8H47.706a.424.424,0,1,0,0,.848h1.264v3.337C48.971,17.016,48.97,17.042,48.968,17.067Z" transform="translate(-28.49 0)"/></g></svg>